<svg width="48" height="48" viewBox="0 0 48 48" fill="none" xmlns="http://www.w3.org/2000/svg">
<g id="icon/arrow_right">
<mask id="mask0_16_3448" style="mask-type:alpha" maskUnits="userSpaceOnUse" x="0" y="0" width="48" height="48">
<rect id="Bounding box" width="48" height="48" fill="#D9D9D9"/>
</mask>
<g mask="url(#mask0_16_3448)">
<path id="arrow_back_ios_new" d="M18.2992 6.75136L35.1492 23.5514C35.3492 23.7514 35.4909 23.968 35.5742 24.2014C35.6576 24.4347 35.6992 24.6847 35.6992 24.9514C35.6992 25.218 35.6576 25.468 35.5742 25.7014C35.4909 25.9347 35.3492 26.1514 35.1492 26.3514L18.2992 43.2014C17.8325 43.668 17.2492 43.9014 16.5492 43.9014C15.8492 43.9014 15.2492 43.6514 14.7492 43.1514C14.2492 42.6514 13.9992 42.068 13.9992 41.4014C13.9992 40.7347 14.2492 40.1514 14.7492 39.6514L29.4492 24.9514L14.7492 10.2514C14.2825 9.78469 14.0492 9.2097 14.0492 8.52636C14.0492 7.84303 14.2992 7.25136 14.7992 6.75136C15.2992 6.25136 15.8826 6.00136 16.5492 6.00136C17.2159 6.00136 17.7992 6.25136 18.2992 6.75136Z" fill="white"/>
</g>
</g>
</svg>
