<svg width="32" height="32" viewBox="0 0 32 32" fill="none" xmlns="http://www.w3.org/2000/svg">
<g id="icon/headset_mic">
<mask id="mask0_1607_8881" style="mask-type:alpha" maskUnits="userSpaceOnUse" x="0" y="0" width="32" height="32">
<rect id="Bounding box" width="32" height="32" fill="#D9D9D9"/>
</mask>
<g mask="url(#mask0_1607_8881)">
<path id="headset_mic" d="M16 30.6667V28.0001H25.3333V26.6667H20V16.0001H25.3333V14.6667C25.3333 12.089 24.4222 9.88897 22.6 8.06675C20.7778 6.24453 18.5778 5.33341 16 5.33341C13.4222 5.33341 11.2222 6.24453 9.4 8.06675C7.57778 9.88897 6.66667 12.089 6.66667 14.6667V16.0001H12V26.6667H6.66667C5.93333 26.6667 5.30556 26.4056 4.78333 25.8834C4.26111 25.3612 4 24.7334 4 24.0001V14.6667C4 13.0223 4.31667 11.4723 4.95 10.0167C5.58333 8.56119 6.44444 7.28897 7.53333 6.20008C8.62222 5.11119 9.89444 4.25008 11.35 3.61675C12.8056 2.98341 14.3556 2.66675 16 2.66675C17.6444 2.66675 19.1944 2.98341 20.65 3.61675C22.1056 4.25008 23.3778 5.11119 24.4667 6.20008C25.5556 7.28897 26.4167 8.56119 27.05 10.0167C27.6833 11.4723 28 13.0223 28 14.6667V28.0001C28 28.7334 27.7389 29.3612 27.2167 29.8834C26.6944 30.4056 26.0667 30.6667 25.3333 30.6667H16ZM6.66667 24.0001H9.33333V18.6667H6.66667V24.0001ZM22.6667 24.0001H25.3333V18.6667H22.6667V24.0001Z" fill="white"/>
</g>
</g>
</svg>
