<svg width="43" height="43" viewBox="0 0 43 43" fill="none" xmlns="http://www.w3.org/2000/svg">
<path d="M15.3658 5.19099L2.85736 17.6984C-0.285788 20.8416 -0.285788 25.9366 2.85736 29.0798L7.26816 33.4906L8.18657 34.409L12.3113 30.2843L7.84141 25.8144C6.50147 24.4745 6.50147 22.3037 7.84141 20.9638L18.6301 10.175C19.9701 8.83509 22.1409 8.83509 23.4808 10.175L37.8322 24.5264L41.9569 20.4017L26.7451 5.18997C23.604 2.04783 18.508 2.04784 15.3658 5.19099Z" fill="#FF4A18"/>
<path d="M18.0693 24.5275L23.8262 30.2844L18.0693 36.0412L22.194 40.1669L32.0766 30.2844L22.194 20.4028L18.0693 24.5275Z" fill="#FF4A18"/>
</svg>
