<svg width="100" height="43" viewBox="0 0 100 43" fill="none" xmlns="http://www.w3.org/2000/svg">
<g id="Group">
<g id="Group 6">
<g id="Group_2">
<g id="Group_3">
<path id="Vector" d="M15.0595 5.33562L2.38825 17.7327C-0.796083 20.8479 -0.796083 25.8975 2.38825 29.0127L6.85683 33.3842L7.78727 34.2944L11.966 30.2065L7.43758 25.7764C6.08009 24.4484 6.08009 22.297 7.43758 20.9689L18.3677 10.2763C19.7252 8.94827 21.9244 8.94827 23.2819 10.2763L37.8213 24.4999L42 20.4119L26.59 5.33562C23.4067 2.22146 18.2439 2.22146 15.0595 5.33562Z" fill="#FF4A18"/>
<path id="Vector_2" d="M17.7988 24.5008L23.6311 30.2064L17.7988 35.912L21.9775 40L31.9896 30.2064L21.9775 20.4119L17.7988 24.5008Z" fill="#FF4A18"/>
</g>
</g>
<g id="Group_4">
<g id="Group_5">
<path id="Vector_3" d="M82.113 10.2283H75.6201C73.802 10.2283 72.3232 11.6795 72.3232 13.4636V19.9482H75.3044V13.7804C75.3044 13.2032 75.7826 12.734 76.3708 12.734H77.7457V19.9492H80.7525V12.734H81.9125C82.3331 12.734 82.6467 12.7744 82.8431 12.8541C83.2123 13.0034 83.2904 13.6533 83.2904 14.173V19.9502H86.2623V13.8561C86.2623 13.0044 86.1173 12.3071 85.8325 11.7844C85.2731 10.7511 84.0216 10.2283 82.113 10.2283Z" fill="white"/>
<path id="Vector_4" d="M87.4648 15.0973C87.4648 18.3164 89.1369 19.9492 92.4348 19.9492H96.7435V17.5465H92.7536C91.4939 17.5465 91.0537 17.278 90.9067 17.054C90.7853 16.8683 90.7134 16.615 90.6897 16.2982H96.7435V13.8955H90.6918C90.7175 13.6018 90.7925 13.3566 90.917 13.1638C91.1401 12.8147 91.7818 12.63 92.7711 12.63H96.7435V10.2273H92.4358C89.1369 10.2283 87.4648 11.8661 87.4648 15.0973Z" fill="white"/>
<path id="Vector_5" d="M47.2988 10.1133V16.7129C47.2988 18.4971 48.7776 19.9482 50.5957 19.9482H53.6992V17.3063H51.0584C50.4702 17.3063 49.991 16.8371 49.991 16.2598V10.5674C49.991 9.99015 50.4702 9.52091 51.0584 9.52091H59.0126V6.87903H50.5957C48.7776 6.87802 47.2988 8.32914 47.2988 10.1133Z" fill="white"/>
<path id="Vector_6" d="M53.2246 14.734H56.3199V19.9492H59.0131V12.0922H53.2246V14.734Z" fill="white"/>
<path id="Vector_7" d="M67.3182 10.2283H64.3134C62.4953 10.2283 61.0166 11.6795 61.0166 13.4636V16.713C61.0166 18.4971 62.4953 19.9482 64.3134 19.9482H66.6118V17.3063H64.7762C64.188 17.3063 63.7098 16.8371 63.7098 16.2599V13.9177C63.7098 13.3405 64.188 12.8712 64.7762 12.8712H66.8555C67.4437 12.8712 67.9219 13.3405 67.9219 13.9177V16.2356V19.9482H70.6151V13.4636C70.6151 11.6795 69.1353 10.2283 67.3182 10.2283Z" fill="white"/>
</g>
<g id="Group_6">
<path id="Vector_8" d="M65.1666 26.9878C63.5779 26.9878 62.2966 27.449 61.3587 28.3572C60.4024 29.2835 59.917 30.5127 59.917 32.0102C59.917 33.532 60.4116 34.7681 61.3875 35.6834C62.3367 36.5735 63.6087 37.0245 65.1666 37.0245C66.7369 37.0245 68.0131 36.5714 68.9592 35.6784C69.9083 34.7823 70.3906 33.5481 70.3906 32.0102C70.3906 30.4723 69.9093 29.2361 68.9602 28.338C68.0131 27.4429 66.7369 26.9878 65.1666 26.9878ZM63.003 32.0072C63.003 31.2493 63.1748 30.6378 63.5162 30.1887C63.8915 29.6872 64.4252 29.443 65.1492 29.443C65.8855 29.443 66.4253 29.6842 66.8007 30.1817C67.1349 30.6247 67.3035 31.2392 67.3035 32.0082C67.3035 32.5662 67.2141 33.0425 67.0372 33.421C66.6742 34.196 66.0572 34.5724 65.1481 34.5724C64.4129 34.5724 63.8751 34.3312 63.5049 33.8347C63.1727 33.3907 63.003 32.7761 63.003 32.0072Z" fill="white"/>
<path id="Vector_9" d="M76.0553 26.9878C74.4665 26.9878 73.1852 27.449 72.2474 28.3572C71.291 29.2835 70.8057 30.5127 70.8057 32.0102C70.8057 33.532 71.3003 34.7681 72.2762 35.6834C73.2253 36.5735 74.4974 37.0245 76.0553 37.0245C77.6256 37.0245 78.9007 36.5714 79.8478 35.6784C80.797 34.7823 81.2793 33.5481 81.2793 32.0102C81.2793 30.4723 80.798 29.2361 79.8488 28.338C78.9017 27.4429 77.6256 26.9878 76.0553 26.9878ZM78.1932 32.0072C78.1932 32.5652 78.1038 33.0415 77.9269 33.4199C77.5639 34.1949 76.9459 34.5714 76.0378 34.5714C75.3026 34.5714 74.7648 34.3302 74.3946 33.8337C74.0603 33.3907 73.8907 32.7761 73.8907 32.0072C73.8907 31.2493 74.0624 30.6378 74.4038 30.1887C74.7792 29.6862 75.3129 29.443 76.0368 29.443C76.7731 29.443 77.313 29.6842 77.6883 30.1817C78.0235 30.6237 78.1932 31.2382 78.1932 32.0072Z" fill="white"/>
<path id="Vector_10" d="M88.2452 30.7418H85.9921C85.0501 30.7418 85.0501 30.329 85.0501 30.1524C85.0501 29.9718 85.0913 29.8396 85.1725 29.7599C85.2383 29.6953 85.5026 29.5449 86.533 29.5449H91.1718V27.1422H85.5818C83.2505 27.1422 82.0176 28.224 82.0176 30.2715C82.0176 31.0294 82.1369 31.5995 82.3806 32.0143C82.8135 32.762 83.8388 33.1263 85.5119 33.1263H87.6601C88.7583 33.1263 88.7583 33.5996 88.7583 33.8014C88.7583 33.981 88.7583 34.4594 87.6601 34.4594H82.1831V36.8621H88.8385C89.7198 36.8621 90.4283 36.5382 90.9446 35.9014C91.4145 35.3302 91.6521 34.6006 91.6521 33.7328C91.6521 31.7761 90.4746 30.7418 88.2452 30.7418Z" fill="white"/>
<path id="Vector_11" d="M97.001 34.1758C96.8303 33.9498 96.7429 33.5411 96.7429 32.9618V23.7919H93.7803V27.1422H92.0342V29.4501H93.7803V33.7328C93.7803 34.7036 94.0477 35.4756 94.5731 36.0255C95.1038 36.5805 95.874 36.8621 96.8632 36.8621H99.3714V34.5542H98.1127C97.5707 34.5542 97.1964 34.4271 97.001 34.1758Z" fill="white"/>
<path id="Vector_12" d="M57.4671 30.3139C58.5571 29.6297 59.1083 28.6196 59.1083 27.3067C59.1083 26.0271 58.5838 25.0533 57.5483 24.4105C56.8799 23.9938 55.7641 23.7919 54.1373 23.7919H47.2979V26.5196H51.2806H54.1898C55.5585 26.5196 55.7158 27.2179 55.7158 27.7437C55.7158 28.2694 55.5574 28.9677 54.1898 28.9677H50.4713V27.8062H47.2979V36.8631H54.6001C57.6141 36.8631 59.1422 35.6259 59.1422 33.1859C59.1433 31.878 58.5797 30.9143 57.4671 30.3139ZM54.2247 34.1687H50.4713V31.6691H54.2247C55.6006 31.6691 55.76 32.3876 55.76 32.9275C55.76 33.4603 55.6017 34.1687 54.2247 34.1687Z" fill="white"/>
<path id="Vector_13" d="M99.372 27.1422H98.0537V29.4501H99.372V27.1422Z" fill="white"/>
</g>
</g>
</g>
</g>
</svg>
