<svg width="38" height="24" viewBox="0 0 38 24" fill="none" xmlns="http://www.w3.org/2000/svg">
<g id="MasterCard">
<path id="Vector" d="M36 0H2C0.89543 0 0 0.89543 0 2V22C0 23.1046 0.89543 24 2 24H36C37.1046 24 38 23.1046 38 22V2C38 0.89543 37.1046 0 36 0Z" fill="black"/>
<path id="Vector_2" d="M23.0564 4.87744H14.9443V19.029H23.0564V4.87744Z" fill="#FF5F00"/>
<path id="Vector_3" d="M15.4592 11.9541C15.4579 10.5912 15.7761 9.24588 16.3896 8.01998C17.003 6.79409 17.8958 5.71975 19.0002 4.8783C17.6325 3.83471 15.99 3.18572 14.2604 3.0055C12.5307 2.82528 10.7837 3.12111 9.2191 3.85917C7.6544 4.59724 6.3353 5.74775 5.4124 7.17922C4.4894 8.6107 4 10.2653 4 11.9541C4 13.6428 4.4894 15.2975 5.4124 16.7289C6.3353 18.1604 7.6544 19.3109 9.2191 20.049C10.7837 20.787 12.5307 21.0829 14.2604 20.9027C15.99 20.7224 17.6325 20.0734 19.0002 19.0299C17.8958 18.1884 17.003 17.1141 16.3896 15.8882C15.7761 14.6623 15.4579 13.317 15.4592 11.9541Z" fill="#D9222A"/>
<path id="Vector_4" d="M33.9998 11.9541C33.9998 13.6428 33.5105 15.2974 32.5876 16.7289C31.6647 18.1604 30.3456 19.3109 28.781 20.049C27.2164 20.787 25.4694 21.0829 23.7398 20.9027C22.0102 20.7224 20.3677 20.0734 19 19.0299C20.1035 18.1876 20.9955 17.113 21.6089 15.8873C22.2223 14.6616 22.541 13.3167 22.541 11.9541C22.541 10.5914 22.2223 9.24651 21.6089 8.02081C20.9955 6.79511 20.1035 5.7206 19 4.8783C20.3677 3.83471 22.0102 3.18571 23.7398 3.0055C25.4694 2.82528 27.2164 3.12112 28.781 3.85919C30.3456 4.59726 31.6647 5.74778 32.5876 7.17925C33.5105 8.61073 33.9998 10.2653 33.9998 11.9541Z" fill="#FFA501"/>
<path id="Vector_5" d="M33.1154 17.5305V17.2408H33.2357V17.1817H32.9292V17.2408H33.0496V17.5305H33.1154ZM33.7104 17.5305V17.1812H33.6165L33.5084 17.4214L33.4003 17.1812H33.3063V17.5305H33.3727V17.267L33.474 17.4942H33.5428L33.6441 17.2664V17.5305H33.7104Z" fill="#F79E1B"/>
</g>
</svg>
