<svg width="20" height="21" viewBox="0 0 20 21" fill="none" xmlns="http://www.w3.org/2000/svg">
<g id="icon/notifications">
<mask id="mask0_16_104" style="mask-type:alpha" maskUnits="userSpaceOnUse" x="0" y="0" width="20" height="21">
<rect id="Bounding box" y="0.5" width="20" height="20" fill="#D9D9D9"/>
</mask>
<g mask="url(#mask0_16_104)">
<path id="notifications" d="M4.16683 16.3334C3.93072 16.3334 3.7328 16.2535 3.57308 16.0938C3.41336 15.934 3.3335 15.7361 3.3335 15.5C3.3335 15.2639 3.41336 15.066 3.57308 14.9063C3.7328 14.7465 3.93072 14.6667 4.16683 14.6667H5.00016V8.83335C5.00016 7.68058 5.34738 6.65627 6.04183 5.76044C6.73627 4.8646 7.63905 4.2778 8.75016 4.00002V3.41669C8.75016 3.06946 8.87169 2.77433 9.11475 2.53127C9.3578 2.28821 9.65294 2.16669 10.0002 2.16669C10.3474 2.16669 10.6425 2.28821 10.8856 2.53127C11.1286 2.77433 11.2502 3.06946 11.2502 3.41669V4.00002C12.3613 4.2778 13.2641 4.8646 13.9585 5.76044C14.6529 6.65627 15.0002 7.68058 15.0002 8.83335V14.6667H15.8335C16.0696 14.6667 16.2675 14.7465 16.4272 14.9063C16.587 15.066 16.6668 15.2639 16.6668 15.5C16.6668 15.7361 16.587 15.934 16.4272 16.0938C16.2675 16.2535 16.0696 16.3334 15.8335 16.3334H4.16683ZM10.0002 18.8334C9.54183 18.8334 9.14947 18.6702 8.82308 18.3438C8.49669 18.0174 8.3335 17.625 8.3335 17.1667H11.6668C11.6668 17.625 11.5036 18.0174 11.1772 18.3438C10.8509 18.6702 10.4585 18.8334 10.0002 18.8334ZM6.66683 14.6667H13.3335V8.83335C13.3335 7.91669 13.0071 7.13197 12.3543 6.47919C11.7016 5.82641 10.9168 5.50002 10.0002 5.50002C9.0835 5.50002 8.29877 5.82641 7.646 6.47919C6.99322 7.13197 6.66683 7.91669 6.66683 8.83335V14.6667Z" fill="white"/>
</g>
</g>
</svg>
