<svg width="33" height="32" viewBox="0 0 33 32" fill="none" xmlns="http://www.w3.org/2000/svg">
<g id="icon32/shield_lock">
<mask id="mask0_16_2004" style="mask-type:alpha" maskUnits="userSpaceOnUse" x="0" y="0" width="33" height="32">
<rect id="Bounding box" x="0.5" width="32" height="32" fill="#D9D9D9"/>
</mask>
<g mask="url(#mask0_16_2004)">
<path id="shield_lock" d="M16.4997 29.3332C13.4108 28.5554 10.8608 26.7832 8.84967 24.0165C6.83856 21.2498 5.83301 18.1776 5.83301 14.7998V6.6665L16.4997 2.6665L27.1663 6.6665V14.7998C27.1663 18.1776 26.1608 21.2498 24.1497 24.0165C22.1386 26.7832 19.5886 28.5554 16.4997 29.3332ZM16.4997 26.5332C18.8108 25.7998 20.7219 24.3332 22.233 22.1332C23.7441 19.9332 24.4997 17.4887 24.4997 14.7998V8.49984L16.4997 5.49984L8.49967 8.49984V14.7998C8.49967 17.4887 9.25523 19.9332 10.7663 22.1332C12.2775 24.3332 14.1886 25.7998 16.4997 26.5332ZM13.833 21.3332H19.1663C19.5441 21.3332 19.8608 21.2054 20.1163 20.9498C20.3719 20.6943 20.4997 20.3776 20.4997 19.9998V15.9998C20.4997 15.6221 20.3719 15.3054 20.1163 15.0498C19.8608 14.7943 19.5441 14.6665 19.1663 14.6665V13.3332C19.1663 12.5998 18.9052 11.9721 18.383 11.4498C17.8608 10.9276 17.233 10.6665 16.4997 10.6665C15.7663 10.6665 15.1386 10.9276 14.6163 11.4498C14.0941 11.9721 13.833 12.5998 13.833 13.3332V14.6665C13.4552 14.6665 13.1386 14.7943 12.883 15.0498C12.6275 15.3054 12.4997 15.6221 12.4997 15.9998V19.9998C12.4997 20.3776 12.6275 20.6943 12.883 20.9498C13.1386 21.2054 13.4552 21.3332 13.833 21.3332ZM15.1663 14.6665V13.3332C15.1663 12.9554 15.2941 12.6387 15.5497 12.3832C15.8052 12.1276 16.1219 11.9998 16.4997 11.9998C16.8775 11.9998 17.1941 12.1276 17.4497 12.3832C17.7052 12.6387 17.833 12.9554 17.833 13.3332V14.6665H15.1663Z" fill="white"/>
</g>
</g>
</svg>
