<svg width="24" height="25" viewBox="0 0 24 25" fill="none" xmlns="http://www.w3.org/2000/svg">
<g id="icon/arrow_forward">
<mask id="mask0_16_231" style="mask-type:alpha" maskUnits="userSpaceOnUse" x="0" y="0" width="24" height="25">
<rect id="Bounding box" y="0.5" width="24" height="24" fill="#D9D9D9"/>
</mask>
<g mask="url(#mask0_16_231)">
<path id="arrow_forward" d="M11.3 19.8C11.1167 19.6167 11.0208 19.3833 11.0125 19.1C11.0042 18.8167 11.0917 18.5833 11.275 18.4L16.175 13.5H5C4.71667 13.5 4.47917 13.4042 4.2875 13.2125C4.09583 13.0208 4 12.7833 4 12.5C4 12.2167 4.09583 11.9792 4.2875 11.7875C4.47917 11.5958 4.71667 11.5 5 11.5H16.175L11.275 6.6C11.0917 6.41667 11.0042 6.18333 11.0125 5.9C11.0208 5.61667 11.1167 5.38333 11.3 5.2C11.4833 5.01667 11.7167 4.925 12 4.925C12.2833 4.925 12.5167 5.01667 12.7 5.2L19.3 11.8C19.4 11.8833 19.4708 11.9875 19.5125 12.1125C19.5542 12.2375 19.575 12.3667 19.575 12.5C19.575 12.6333 19.5542 12.7583 19.5125 12.875C19.4708 12.9917 19.4 13.1 19.3 13.2L12.7 19.8C12.5167 19.9833 12.2833 20.075 12 20.075C11.7167 20.075 11.4833 19.9833 11.3 19.8Z" fill="#101010"/>
</g>
</g>
</svg>
