<svg width="32" height="32" viewBox="0 0 32 32" fill="none" xmlns="http://www.w3.org/2000/svg">
<g id="icon/logout_28px">
<mask id="mask0_17_27884" style="mask-type:alpha" maskUnits="userSpaceOnUse" x="0" y="0" width="32" height="32">
<rect id="Bounding box" width="32" height="32" fill="#D9D9D9"/>
</mask>
<g mask="url(#mask0_17_27884)">
<path id="logout" d="M20.4333 21.7C20.1889 21.4111 20.0667 21.0833 20.0667 20.7167C20.0667 20.35 20.1889 20.0444 20.4333 19.8L22.9 17.3333H13.3333C12.9556 17.3333 12.6389 17.2056 12.3833 16.95C12.1278 16.6944 12 16.3778 12 16C12 15.6222 12.1278 15.3056 12.3833 15.05C12.6389 14.7944 12.9556 14.6667 13.3333 14.6667H22.9L20.4333 12.2C20.1667 11.9333 20.0333 11.6167 20.0333 11.25C20.0333 10.8833 20.1667 10.5667 20.4333 10.3C20.6778 10.0333 20.9833 9.9 21.35 9.9C21.7167 9.9 22.0222 10.0222 22.2667 10.2667L27.0667 15.0667C27.2 15.2 27.2944 15.3444 27.35 15.5C27.4056 15.6556 27.4333 15.8222 27.4333 16C27.4333 16.1778 27.4056 16.3444 27.35 16.5C27.2944 16.6556 27.2 16.8 27.0667 16.9333L22.2667 21.7333C21.9778 22.0222 21.6611 22.15 21.3167 22.1167C20.9722 22.0833 20.6778 21.9444 20.4333 21.7ZM6.66667 28C5.93333 28 5.30556 27.7389 4.78333 27.2167C4.26111 26.6944 4 26.0667 4 25.3333V6.66667C4 5.93333 4.26111 5.30556 4.78333 4.78333C5.30556 4.26111 5.93333 4 6.66667 4H14.6667C15.0444 4 15.3611 4.12778 15.6167 4.38333C15.8722 4.63889 16 4.95556 16 5.33333C16 5.71111 15.8722 6.02778 15.6167 6.28333C15.3611 6.53889 15.0444 6.66667 14.6667 6.66667H6.66667V25.3333H14.6667C15.0444 25.3333 15.3611 25.4611 15.6167 25.7167C15.8722 25.9722 16 26.2889 16 26.6667C16 27.0444 15.8722 27.3611 15.6167 27.6167C15.3611 27.8722 15.0444 28 14.6667 28H6.66667Z" fill="white"/>
</g>
</g>
</svg>
