<svg width="32" height="32" viewBox="0 0 32 32" fill="none" xmlns="http://www.w3.org/2000/svg">
<g id="icon/settings">
<mask id="mask0_17_28631" style="mask-type:alpha" maskUnits="userSpaceOnUse" x="0" y="0" width="32" height="32">
<rect id="Bounding box" width="32" height="32" fill="#D9D9D9"/>
</mask>
<g mask="url(#mask0_17_28631)">
<path id="settings" d="M18.4998 29.3334H13.4998C13.1665 29.3334 12.8776 29.2223 12.6331 29.0001C12.3887 28.7779 12.2442 28.5001 12.1998 28.1667L11.7998 25.0668C11.5109 24.9556 11.2387 24.8223 10.9831 24.6667C10.7276 24.5112 10.4776 24.3445 10.2331 24.1667L7.33313 25.3667C7.02202 25.4779 6.71091 25.489 6.3998 25.4001C6.08869 25.3112 5.84424 25.1223 5.66647 24.8334L3.1998 20.5334C3.02202 20.2445 2.96647 19.9334 3.03313 19.6001C3.0998 19.2667 3.26647 19.0001 3.53313 18.8001L6.03313 16.9001C6.01091 16.7445 5.9998 16.5945 5.9998 16.4501V15.5501C5.9998 15.4056 6.01091 15.2556 6.03313 15.1001L3.53313 13.2001C3.26647 13.0001 3.0998 12.7334 3.03313 12.4001C2.96647 12.0667 3.02202 11.7556 3.1998 11.4667L5.66647 7.16675C5.82202 6.85564 6.06091 6.66119 6.38313 6.58341C6.70535 6.50564 7.02202 6.5223 7.33313 6.63342L10.2331 7.83341C10.4776 7.65564 10.7331 7.48897 10.9998 7.33341C11.2665 7.17786 11.5331 7.04453 11.7998 6.93341L12.1998 3.83341C12.2442 3.50008 12.3887 3.2223 12.6331 3.00008C12.8776 2.77786 13.1665 2.66675 13.4998 2.66675H18.4998C18.8331 2.66675 19.122 2.77786 19.3665 3.00008C19.6109 3.2223 19.7554 3.50008 19.7998 3.83341L20.1998 6.93341C20.4887 7.04453 20.7609 7.17786 21.0165 7.33341C21.272 7.48897 21.522 7.65564 21.7665 7.83341L24.6665 6.63342C24.9776 6.5223 25.2887 6.51119 25.5998 6.60008C25.9109 6.68897 26.1554 6.87786 26.3331 7.16675L28.7998 11.4667C28.9776 11.7556 29.0331 12.0667 28.9665 12.4001C28.8998 12.7334 28.7331 13.0001 28.4665 13.2001L25.9665 15.1001C25.9887 15.2556 25.9998 15.4056 25.9998 15.5501V16.4501C25.9998 16.5945 25.9776 16.7445 25.9331 16.9001L28.4331 18.8001C28.6998 19.0001 28.8665 19.2667 28.9331 19.6001C28.9998 19.9334 28.9442 20.2445 28.7665 20.5334L26.2998 24.8001C26.122 25.089 25.872 25.2834 25.5498 25.3834C25.2276 25.4834 24.9109 25.4779 24.5998 25.3667L21.7665 24.1667C21.522 24.3445 21.2665 24.5112 20.9998 24.6667C20.7331 24.8223 20.4665 24.9556 20.1998 25.0668L19.7998 28.1667C19.7554 28.5001 19.6109 28.7779 19.3665 29.0001C19.122 29.2223 18.8331 29.3334 18.4998 29.3334ZM16.0665 20.6667C17.3554 20.6667 18.4554 20.2112 19.3665 19.3001C20.2776 18.389 20.7331 17.289 20.7331 16.0001C20.7331 14.7112 20.2776 13.6112 19.3665 12.7001C18.4554 11.789 17.3554 11.3334 16.0665 11.3334C14.7554 11.3334 13.6498 11.789 12.7498 12.7001C11.8498 13.6112 11.3998 14.7112 11.3998 16.0001C11.3998 17.289 11.8498 18.389 12.7498 19.3001C13.6498 20.2112 14.7554 20.6667 16.0665 20.6667ZM16.0665 18.0001C15.5109 18.0001 15.0387 17.8056 14.6498 17.4167C14.2609 17.0279 14.0665 16.5556 14.0665 16.0001C14.0665 15.4445 14.2609 14.9723 14.6498 14.5834C15.0387 14.1945 15.5109 14.0001 16.0665 14.0001C16.622 14.0001 17.0942 14.1945 17.4831 14.5834C17.872 14.9723 18.0665 15.4445 18.0665 16.0001C18.0665 16.5556 17.872 17.0279 17.4831 17.4167C17.0942 17.8056 16.622 18.0001 16.0665 18.0001ZM14.6665 26.6667H17.2998L17.7665 23.1334C18.4554 22.9556 19.0942 22.6945 19.6831 22.3501C20.272 22.0056 20.8109 21.589 21.2998 21.1001L24.5998 22.4667L25.8998 20.2001L23.0331 18.0334C23.1442 17.7223 23.222 17.3945 23.2665 17.0501C23.3109 16.7056 23.3331 16.3556 23.3331 16.0001C23.3331 15.6445 23.3109 15.2945 23.2665 14.9501C23.222 14.6056 23.1442 14.2779 23.0331 13.9667L25.8998 11.8001L24.5998 9.53342L21.2998 10.9334C20.8109 10.4223 20.272 9.99453 19.6831 9.65008C19.0942 9.30564 18.4554 9.04453 17.7665 8.86675L17.3331 5.33341H14.6998L14.2331 8.86675C13.5442 9.04453 12.9054 9.30564 12.3165 9.65008C11.7276 9.99453 11.1887 10.4112 10.6998 10.9001L7.3998 9.53342L6.0998 11.8001L8.96647 13.9334C8.85535 14.2667 8.77758 14.6001 8.73313 14.9334C8.68869 15.2667 8.66647 15.6223 8.66647 16.0001C8.66647 16.3556 8.68869 16.7001 8.73313 17.0334C8.77758 17.3667 8.85535 17.7001 8.96647 18.0334L6.0998 20.2001L7.3998 22.4667L10.6998 21.0667C11.1887 21.5779 11.7276 22.0056 12.3165 22.3501C12.9054 22.6945 13.5442 22.9556 14.2331 23.1334L14.6665 26.6667Z" fill="white"/>
</g>
</g>
</svg>
