<svg width="32" height="32" viewBox="0 0 32 32" fill="none" xmlns="http://www.w3.org/2000/svg">
<path d="M7.39 23.14C8.58 22.23 9.91 21.5125 11.38 20.9875C12.85 20.4625 14.39 20.2 16 20.2C17.61 20.2 19.15 20.4625 20.62 20.9875C22.09 21.5125 23.42 22.23 24.61 23.14C25.4267 22.1833 26.0625 21.0983 26.5175 19.885C26.9725 18.6717 27.2 17.3767 27.2 16C27.2 12.8967 26.1092 10.2542 23.9275 8.0725C21.7458 5.89083 19.1033 4.8 16 4.8C12.8967 4.8 10.2542 5.89083 8.0725 8.0725C5.89083 10.2542 4.8 12.8967 4.8 16C4.8 17.3767 5.0275 18.6717 5.4825 19.885C5.9375 21.0983 6.57333 22.1833 7.39 23.14ZM16 17.4C14.6233 17.4 13.4625 16.9275 12.5175 15.9825C11.5725 15.0375 11.1 13.8767 11.1 12.5C11.1 11.1233 11.5725 9.9625 12.5175 9.0175C13.4625 8.0725 14.6233 7.6 16 7.6C17.3767 7.6 18.5375 8.0725 19.4825 9.0175C20.4275 9.9625 20.9 11.1233 20.9 12.5C20.9 13.8767 20.4275 15.0375 19.4825 15.9825C18.5375 16.9275 17.3767 17.4 16 17.4ZM16 30C14.0633 30 12.2433 29.6325 10.54 28.8975C8.83667 28.1625 7.355 27.165 6.095 25.905C4.835 24.645 3.8375 23.1633 3.1025 21.46C2.3675 19.7567 2 17.9367 2 16C2 14.0633 2.3675 12.2433 3.1025 10.54C3.8375 8.83667 4.835 7.355 6.095 6.095C7.355 4.835 8.83667 3.8375 10.54 3.1025C12.2433 2.3675 14.0633 2 16 2C17.9367 2 19.7567 2.3675 21.46 3.1025C23.1633 3.8375 24.645 4.835 25.905 6.095C27.165 7.355 28.1625 8.83667 28.8975 10.54C29.6325 12.2433 30 14.0633 30 16C30 17.9367 29.6325 19.7567 28.8975 21.46C28.1625 23.1633 27.165 24.645 25.905 25.905C24.645 27.165 23.1633 28.1625 21.46 28.8975C19.7567 29.6325 17.9367 30 16 30Z" fill="white"/>
</svg>
