<svg width="0" height="0" class="hidden">
  <symbol fill="none" xmlns="http://www.w3.org/2000/svg" viewBox="0 0 24 22" id="star">
    <path id="star" d="M12 0L15.174 7.63131L23.4127 8.2918L17.1357 13.6687L19.0534 21.7082L12 17.4L4.94658 21.7082L6.8643 13.6687L0.587322 8.2918L8.82596 7.63131L12 0Z" fill="#FFC700"></path>
  </symbol>
    <symbol fill="none" xmlns="http://www.w3.org/2000/svg" viewBox="0 0 20 21" id="notifications">
    <g id="icon/notifications">
      <mask id="mask0_16_104" maskUnits="userSpaceOnUse" x="0" y="0" width="20" height="21">
        <rect id="Bounding box" y="0.5" width="20" height="20" fill="#D9D9D9"></rect>
      </mask>
      <g mask="url(#mask0_16_104)">
        <path id="notifications" d="M4.16683 16.3334C3.93072 16.3334 3.7328 16.2535 3.57308 16.0938C3.41336 15.934 3.3335 15.7361 3.3335 15.5C3.3335 15.2639 3.41336 15.066 3.57308 14.9063C3.7328 14.7465 3.93072 14.6667 4.16683 14.6667H5.00016V8.83335C5.00016 7.68058 5.34738 6.65627 6.04183 5.76044C6.73627 4.8646 7.63905 4.2778 8.75016 4.00002V3.41669C8.75016 3.06946 8.87169 2.77433 9.11475 2.53127C9.3578 2.28821 9.65294 2.16669 10.0002 2.16669C10.3474 2.16669 10.6425 2.28821 10.8856 2.53127C11.1286 2.77433 11.2502 3.06946 11.2502 3.41669V4.00002C12.3613 4.2778 13.2641 4.8646 13.9585 5.76044C14.6529 6.65627 15.0002 7.68058 15.0002 8.83335V14.6667H15.8335C16.0696 14.6667 16.2675 14.7465 16.4272 14.9063C16.587 15.066 16.6668 15.2639 16.6668 15.5C16.6668 15.7361 16.587 15.934 16.4272 16.0938C16.2675 16.2535 16.0696 16.3334 15.8335 16.3334H4.16683ZM10.0002 18.8334C9.54183 18.8334 9.14947 18.6702 8.82308 18.3438C8.49669 18.0174 8.3335 17.625 8.3335 17.1667H11.6668C11.6668 17.625 11.5036 18.0174 11.1772 18.3438C10.8509 18.6702 10.4585 18.8334 10.0002 18.8334ZM6.66683 14.6667H13.3335V8.83335C13.3335 7.91669 13.0071 7.13197 12.3543 6.47919C11.7016 5.82641 10.9168 5.50002 10.0002 5.50002C9.0835 5.50002 8.29877 5.82641 7.646 6.47919C6.99322 7.13197 6.66683 7.91669 6.66683 8.83335V14.6667Z" fill="white"></path>
      </g>
    </g>
  </symbol>
   <symbol fill="none" xmlns="http://www.w3.org/2000/svg" viewBox="0 0 38 24" id="apay">
    <g id="apay">
      <g id="Clip path group">
        <mask id="mask0_278_1235" maskUnits="userSpaceOnUse" x="0" y="0" width="38" height="24">
          <g id="clip0_4282_36446">
            <path id="Vector" d="M38 0H0V24H38V0Z" fill="white"></path>
          </g>
        </mask>
        <g mask="url(#mask0_278_1235)">
          <g id="Group">
            <path id="Vector_2" d="M34.597 0H3.403C3.273 0 3.143 0 3.013 0.000747416C2.904 0.00151748 2.794 0.00271788 2.685 0.00566224C2.446 0.0120266 2.206 0.0259104 1.97 0.0676751C1.731 0.110165 1.508 0.17947 1.291 0.288593C1.077 0.395745 0.882006 0.535897 0.712006 0.703137C0.543006 0.870377 0.401007 1.06296 0.292007 1.27389C0.182007 1.48822 0.111 1.70798 0.0690002 1.94426C0.0260002 2.1767 0.0120049 2.41399 0.00500488 2.64907C0.00300488 2.75697 0.00100708 2.86487 0.00100708 2.97274C7.08003e-06 3.10096 0 3.22909 0 3.35753V20.6427C0 20.7712 7.08003e-06 20.8991 0.00100708 21.0275C0.00100708 21.1354 0.00300488 21.2433 0.00500488 21.3512C0.0120049 21.5861 0.0260002 21.8234 0.0690002 22.0557C0.111 22.2921 0.182007 22.5118 0.292007 22.7261C0.401007 22.9371 0.543006 23.1299 0.712006 23.2969C0.882006 23.4644 1.077 23.6045 1.291 23.7114C1.508 23.8208 1.731 23.8902 1.97 23.9326C2.206 23.9741 2.446 23.9882 2.685 23.9946C2.794 23.9971 2.904 23.9985 3.013 23.999C3.143 24 3.273 24 3.403 24H34.597C34.727 24 34.857 24 34.986 23.999C35.096 23.9985 35.205 23.9971 35.315 23.9946C35.553 23.9882 35.794 23.9741 36.03 23.9326C36.269 23.8902 36.491 23.8208 36.709 23.7114C36.923 23.6045 37.118 23.4644 37.287 23.2969C37.457 23.1299 37.599 22.9371 37.708 22.7261C37.818 22.5118 37.889 22.2921 37.931 22.0557C37.974 21.8234 37.988 21.5861 37.994 21.3512C37.997 21.2433 37.998 21.1354 37.999 21.0275C38 20.8991 38 20.7712 38 20.6427V3.35753C38 3.22909 38 3.10096 37.999 2.97274C37.998 2.86487 37.997 2.75697 37.994 2.64907C37.988 2.41399 37.974 2.1767 37.931 1.94426C37.889 1.70798 37.818 1.48822 37.708 1.27389C37.599 1.06296 37.457 0.870377 37.287 0.703137C37.118 0.535897 36.923 0.395745 36.709 0.288593C36.491 0.17947 36.269 0.110165 36.03 0.0676751C35.794 0.0259104 35.553 0.0120266 35.315 0.00566224C35.205 0.00271788 35.096 0.00151748 34.986 0.000747416C34.857 0 34.727 0 34.597 0Z" fill="white"></path>
            <path id="Vector_3" d="M34.597 0.799805L34.981 0.800529C35.085 0.801254 35.189 0.802364 35.293 0.805172C35.475 0.810019 35.688 0.819736 35.886 0.854796C36.058 0.885418 36.203 0.931984 36.342 1.00165C36.479 1.0703 36.604 1.16026 36.714 1.26819C36.824 1.37683 36.915 1.50081 36.985 1.63741C37.056 1.77319 37.103 1.91511 37.133 2.08638C37.169 2.27985 37.179 2.49026 37.184 2.67074C37.186 2.77262 37.188 2.8745 37.188 2.97879C37.189 3.10493 37.189 3.23099 37.189 3.35737V20.6426C37.189 20.7689 37.189 20.8948 37.188 21.0236C37.188 21.1255 37.186 21.2273 37.184 21.3294C37.179 21.5096 37.169 21.7199 37.133 21.9157C37.103 22.0846 37.056 22.2265 36.985 22.363C36.915 22.4992 36.824 22.6231 36.714 22.731C36.604 22.8398 36.479 22.9295 36.34 22.9987C36.203 23.0681 36.058 23.1146 35.888 23.1449C35.685 23.1804 35.464 23.1902 35.297 23.1947C35.192 23.197 35.087 23.1984 34.98 23.1989C34.853 23.1999 34.725 23.1999 34.597 23.1999H3.40303C3.40303 23.1999 3.40003 23.1999 3.39803 23.1999C3.27203 23.1999 3.14603 23.1999 3.01703 23.1989C2.91303 23.1984 2.80803 23.1971 2.70703 23.1948C2.53603 23.1902 2.31503 23.1805 2.11403 23.1451C1.94203 23.1146 1.79804 23.0681 1.65804 22.9978C1.52104 22.9292 1.39603 22.8396 1.28603 22.7306C1.17603 22.6229 1.08503 22.4995 1.01503 22.363C0.94503 22.2267 0.898035 22.0843 0.867035 21.9134C0.831035 21.718 0.821025 21.5085 0.816025 21.3296C0.813025 21.2271 0.812027 21.1246 0.812027 21.0227L0.811035 20.722V20.6426V3.35737V3.27796L0.812027 2.97784C0.812027 2.87536 0.813025 2.77289 0.816025 2.6705C0.821025 2.49132 0.831035 2.28177 0.867035 2.08477C0.898035 1.91538 0.94503 1.77301 1.01503 1.636C1.08503 1.50059 1.17603 1.37697 1.28603 1.26853C1.39603 1.16044 1.52103 1.0706 1.65903 1.00129C1.79703 0.931961 1.94203 0.885418 2.11403 0.854864C2.31203 0.819713 2.52503 0.810019 2.70703 0.80515C2.81103 0.802364 2.91504 0.801254 3.01804 0.800552L3.40303 0.799805H34.597Z" fill="white"></path>
            <path id="Vector_4" d="M10.3738 8.07201C10.6998 7.67053 10.9198 7.13144 10.8618 6.58057C10.3858 6.60393 9.80478 6.89057 9.46778 7.29237C9.16578 7.63645 8.89778 8.19811 8.96778 8.72589C9.50278 8.77164 10.0368 8.46224 10.3738 8.07201Z" fill="black"></path>
            <path id="Vector_5" d="M10.856 8.82874C10.079 8.78311 9.41904 9.26349 9.04804 9.26349C8.67704 9.26349 8.11003 8.85173 7.49503 8.86283C6.69603 8.87441 5.95403 9.32029 5.54903 10.0294C4.71403 11.4481 5.32904 13.5524 6.14004 14.7078C6.53404 15.2794 7.00904 15.9088 7.63404 15.8862C8.22604 15.8633 8.45703 15.5086 9.17603 15.5086C9.89403 15.5086 10.103 15.8862 10.728 15.8748C11.377 15.8633 11.783 15.3029 12.177 14.7307C12.629 14.0791 12.814 13.4499 12.826 13.4154C12.814 13.4039 11.574 12.9347 11.563 11.5279C11.551 10.3499 12.536 9.78961 12.582 9.75486C12.026 8.94325 11.157 8.85173 10.856 8.82874Z" fill="black"></path>
            <path id="Vector_6" d="M17.617 7.23487C19.304 7.23487 20.4799 8.38251 20.4799 10.0534C20.4799 11.7302 19.28 12.8838 17.574 12.8838H15.7059V15.8153H14.356V7.23486L17.617 7.23487ZM15.7059 11.7659H17.255C18.43 11.7659 19.099 11.1416 19.099 10.0594C19.099 8.9772 18.43 8.35876 17.261 8.35876H15.7059V11.7659Z" fill="black"></path>
            <path id="Vector_7" d="M20.833 14.0373C20.833 12.9431 21.682 12.2713 23.189 12.188L24.925 12.0869V11.6053C24.925 10.9096 24.449 10.4934 23.653 10.4934C22.9 10.4934 22.43 10.8501 22.315 11.4091H21.086C21.158 10.2792 22.134 9.44678 23.702 9.44678C25.239 9.44678 26.221 10.2495 26.221 11.5042V15.8152H24.973V14.7865H24.943C24.576 15.4823 23.774 15.9222 22.942 15.9222C21.701 15.9222 20.833 15.1611 20.833 14.0373ZM24.925 13.4725V12.9789L23.364 13.074C22.586 13.1276 22.146 13.4665 22.146 14.0017C22.146 14.5487 22.605 14.9055 23.304 14.9055C24.214 14.9055 24.925 14.287 24.925 13.4725Z" fill="black"></path>
            <path id="Vector_8" d="M27.399 18.1168V17.0762C27.495 17.0999 27.712 17.0999 27.821 17.0999C28.423 17.0999 28.749 16.8502 28.948 16.208C28.948 16.1961 29.062 15.8275 29.062 15.8215L26.772 9.56006H28.182L29.786 14.6501H29.81L31.413 9.56006H32.787L30.412 16.1425C29.87 17.6589 29.243 18.1465 27.929 18.1465C27.821 18.1465 27.495 18.1346 27.399 18.1168Z" fill="black"></path>
          </g>
        </g>
      </g>
    </g>
  </symbol>
  <symbol fill="none" xmlns="http://www.w3.org/2000/svg" viewBox="0 0 38 24" id="gpay">
    <g id="Frame 160">
      <g id="Clip path group">
        <mask id="mask0_278_1237" maskUnits="userSpaceOnUse" x="0" y="0" width="38" height="24">
          <g id="clip1_4282_36446">
            <path id="Vector" d="M38 0H0V24H38V0Z" fill="white"></path>
          </g>
        </mask>
        <g mask="url(#mask0_278_1237)">
          <g id="Group">
            <path id="Vector_2" d="M34.597 0H3.403C3.273 0 3.143 0 3.013 0.000747416C2.904 0.00151748 2.794 0.00271788 2.685 0.00566224C2.446 0.0120266 2.206 0.0259104 1.97 0.0676751C1.731 0.110165 1.508 0.17947 1.291 0.288593C1.077 0.395745 0.882006 0.535897 0.712006 0.703137C0.543006 0.870377 0.401007 1.06296 0.292007 1.27389C0.182007 1.48822 0.111 1.70798 0.0690002 1.94426C0.0260002 2.1767 0.0120049 2.41399 0.00500488 2.64907C0.00300488 2.75697 0.00100708 2.86487 0.00100708 2.97274C7.08003e-06 3.10096 0 3.22909 0 3.35753V20.6427C0 20.7712 7.08003e-06 20.8991 0.00100708 21.0275C0.00100708 21.1354 0.00300488 21.2433 0.00500488 21.3512C0.0120049 21.5861 0.0260002 21.8234 0.0690002 22.0557C0.111 22.2921 0.182007 22.5118 0.292007 22.7261C0.401007 22.9371 0.543006 23.1299 0.712006 23.2969C0.882006 23.4644 1.077 23.6045 1.291 23.7114C1.508 23.8208 1.731 23.8902 1.97 23.9326C2.206 23.9741 2.446 23.9882 2.685 23.9946C2.794 23.9971 2.904 23.9985 3.013 23.999C3.143 24 3.273 24 3.403 24H34.597C34.727 24 34.857 24 34.986 23.999C35.096 23.9985 35.205 23.9971 35.315 23.9946C35.553 23.9882 35.794 23.9741 36.03 23.9326C36.269 23.8902 36.491 23.8208 36.709 23.7114C36.923 23.6045 37.118 23.4644 37.287 23.2969C37.457 23.1299 37.599 22.9371 37.708 22.7261C37.818 22.5118 37.889 22.2921 37.931 22.0557C37.974 21.8234 37.988 21.5861 37.994 21.3512C37.997 21.2433 37.998 21.1354 37.999 21.0275C38 20.8991 38 20.7712 38 20.6427V3.35753C38 3.22909 38 3.10096 37.999 2.97274C37.998 2.86487 37.997 2.75697 37.994 2.64907C37.988 2.41399 37.974 2.1767 37.931 1.94426C37.889 1.70798 37.818 1.48822 37.708 1.27389C37.599 1.06296 37.457 0.870377 37.287 0.703137C37.118 0.535897 36.923 0.395745 36.709 0.288593C36.491 0.17947 36.269 0.110165 36.03 0.0676751C35.794 0.0259104 35.553 0.0120266 35.315 0.00566224C35.205 0.00271788 35.096 0.00151748 34.986 0.000747416C34.857 0 34.727 0 34.597 0Z" fill="white"></path>
            <path id="Vector_3" d="M34.597 0.800781L34.98 0.801506C35.084 0.802231 35.188 0.803341 35.293 0.806149C35.475 0.810996 35.687 0.820712 35.886 0.855773C36.058 0.886394 36.202 0.932961 36.341 1.00263C36.478 1.07128 36.604 1.16124 36.713 1.26916C36.823 1.37781 36.914 1.50179 36.985 1.63839C37.055 1.77417 37.102 1.91608 37.133 2.08736C37.168 2.28082 37.178 2.49123 37.183 2.67172C37.186 2.7736 37.187 2.87547 37.188 2.97977C37.189 3.1059 37.189 3.23197 37.189 3.35835V20.6435C37.189 20.7699 37.189 20.8958 37.188 21.0246C37.187 21.1264 37.186 21.2283 37.183 21.3304C37.178 21.5106 37.168 21.7209 37.132 21.9166C37.102 22.0856 37.055 22.2275 36.985 22.364C36.914 22.5002 36.823 22.6241 36.714 22.732C36.603 22.8407 36.478 22.9304 36.34 22.9997C36.202 23.069 36.058 23.1156 35.887 23.1459C35.685 23.1814 35.463 23.1912 35.296 23.1957C35.191 23.198 35.087 23.1994 34.98 23.1999C34.852 23.2009 34.724 23.2009 34.597 23.2009H3.40303C3.40103 23.2009 3.39803 23.2009 3.39803 23.2009C3.27203 23.2009 3.14503 23.2009 3.01703 23.1999C2.91203 23.1994 2.80803 23.198 2.70703 23.1958C2.53603 23.1912 2.31404 23.1814 2.11304 23.1461C1.94104 23.1156 1.79704 23.069 1.65804 22.9988C1.52004 22.9301 1.39503 22.8405 1.28503 22.7316C1.17603 22.6239 1.08503 22.5004 1.01503 22.364C0.94403 22.2277 0.897028 22.0853 0.866028 21.9144C0.830028 21.719 0.821025 21.5095 0.816025 21.3305C0.813025 21.228 0.812035 21.1256 0.811035 21.0237V20.7229V20.6435V3.35835V3.27894V2.97882C0.812035 2.87633 0.813025 2.77387 0.816025 2.67147C0.821025 2.4923 0.830028 2.28275 0.866028 2.08575C0.897028 1.91636 0.94403 1.77398 1.01503 1.63698C1.08503 1.50156 1.17603 1.37794 1.28603 1.2695C1.39503 1.16142 1.52103 1.07157 1.65903 1.00227C1.79703 0.932938 1.94104 0.886394 2.11304 0.855841C2.31204 0.82069 2.52403 0.810996 2.70703 0.806126C2.81103 0.803341 2.91504 0.802231 3.01804 0.801529L3.40303 0.800781H34.597Z" fill="white"></path>
          </g>
        </g>
      </g>
      <path id="Vector_4" d="M18.0719 11.7772V15.2781H16.9648V6.63281H19.8988C20.6428 6.63281 21.2769 6.88164 21.7959 7.3793C22.3259 7.87695 22.5909 8.48455 22.5909 9.2021C22.5909 9.93701 22.3259 10.5446 21.7959 11.0365C21.2819 11.5283 20.6478 11.7714 19.8988 11.7714H18.0719V11.7772ZM18.0719 7.69756V10.7124H19.9218C20.3598 10.7124 20.7288 10.562 21.0168 10.2669C21.3108 9.97173 21.4608 9.61296 21.4608 9.20789C21.4608 8.80861 21.3108 8.45562 21.0168 8.1605C20.7288 7.8538 20.3658 7.70335 19.9218 7.70335H18.0719V7.69756Z" fill="#232B46"></path>
      <path id="Vector_5" d="M25.4851 9.16797C26.3041 9.16797 26.9491 9.38786 27.4221 9.82765C27.8951 10.2674 28.1311 10.8693 28.1311 11.6331V15.2787H27.0761V14.457H27.0301C26.5751 15.134 25.9641 15.4697 25.2031 15.4697C24.5511 15.4697 24.0091 15.2787 23.5711 14.891C23.1331 14.5033 22.9141 14.023 22.9141 13.4443C22.9141 12.8309 23.1451 12.3449 23.6061 11.9861C24.0671 11.6215 24.6841 11.4421 25.4501 11.4421C26.1081 11.4421 26.6491 11.5637 27.0701 11.8067V11.5521C27.0701 11.1644 26.9201 10.8403 26.6151 10.5683C26.3091 10.2964 25.9521 10.1633 25.5431 10.1633C24.9261 10.1633 24.4361 10.4237 24.0791 10.9503L23.1041 10.3369C23.6401 9.55568 24.4361 9.16797 25.4851 9.16797ZM24.0551 13.4617C24.0551 13.751 24.1761 13.9941 24.4241 14.185C24.6661 14.376 24.9551 14.4744 25.2831 14.4744C25.7501 14.4744 26.1651 14.3008 26.5281 13.9536C26.8921 13.6064 27.0761 13.2013 27.0761 12.7326C26.7301 12.4606 26.2521 12.3217 25.6351 12.3217C25.1851 12.3217 24.8111 12.4317 24.5111 12.6458C24.2051 12.8714 24.0551 13.1434 24.0551 13.4617Z" fill="#232B46"></path>
      <path id="Vector_6" d="M34.1488 9.35938L30.4598 17.8774H29.3178L30.6898 14.8972L28.2578 9.35938H29.4628L31.2148 13.6068H31.2378L32.9438 9.35938H34.1488Z" fill="#232B46"></path>
      <path id="Vector_7" d="M13.669 12.0695C13.669 11.7073 13.637 11.3607 13.577 11.0273H8.93799V12.937L11.609 12.9375C11.501 13.5729 11.152 14.1145 10.618 14.4756V15.7146H12.208C13.137 14.8518 13.669 13.5764 13.669 12.0695Z" fill="#4285F4"></path>
      <path id="Vector_8" d="M10.6189 14.4773C10.1759 14.7771 9.6059 14.9524 8.9389 14.9524C7.6499 14.9524 6.55691 14.081 6.16591 12.9062H4.5249V14.184C5.3379 15.8031 7.0089 16.9142 8.9389 16.9142C10.2729 16.9142 11.3929 16.4737 12.2089 15.7157L10.6189 14.4773Z" fill="#34A853"></path>
      <path id="Vector_9" d="M6.011 11.9566C6.011 11.6268 6.066 11.3079 6.166 11.0082V9.73047H4.52499C4.18899 10.4 4 11.1557 4 11.9566C4 12.7575 4.18999 13.5132 4.52499 14.1827L6.166 12.905C6.066 12.6053 6.011 12.2864 6.011 11.9566Z" fill="#F2AE14"></path>
      <path id="Vector_10" d="M8.9389 8.96169C9.6669 8.96169 10.3189 9.21341 10.8339 9.70528L12.2429 8.29159C11.3869 7.49129 10.2709 7 8.9389 7C7.0089 7 5.3379 8.11104 4.5249 9.73016L6.16591 11.0079C6.55691 9.83316 7.6499 8.96169 8.9389 8.96169Z" fill="#E94235"></path>
    </g>
  </symbol>
  <symbol fill="none" xmlns="http://www.w3.org/2000/svg" viewBox="0 0 38 24" id="mastercard">
    <g id="mastercard">
      <path id="Vector" d="M36 0H2C0.89543 0 0 0.89543 0 2V22C0 23.1046 0.89543 24 2 24H36C37.1046 24 38 23.1046 38 22V2C38 0.89543 37.1046 0 36 0Z" fill="black"></path>
      <path id="Vector_2" d="M23.0564 4.87744H14.9443V19.029H23.0564V4.87744Z" fill="#FF5F00"></path>
      <path id="Vector_3" d="M15.4592 11.9541C15.4579 10.5912 15.7761 9.24588 16.3896 8.01998C17.003 6.79409 17.8958 5.71975 19.0002 4.8783C17.6325 3.83471 15.99 3.18572 14.2604 3.0055C12.5307 2.82528 10.7837 3.12111 9.2191 3.85917C7.6544 4.59724 6.3353 5.74775 5.4124 7.17922C4.4894 8.6107 4 10.2653 4 11.9541C4 13.6428 4.4894 15.2975 5.4124 16.7289C6.3353 18.1604 7.6544 19.3109 9.2191 20.049C10.7837 20.787 12.5307 21.0829 14.2604 20.9027C15.99 20.7224 17.6325 20.0734 19.0002 19.0299C17.8958 18.1884 17.003 17.1141 16.3896 15.8882C15.7761 14.6623 15.4579 13.317 15.4592 11.9541Z" fill="#D9222A"></path>
      <path id="Vector_4" d="M33.9998 11.9541C33.9998 13.6428 33.5105 15.2974 32.5876 16.7289C31.6647 18.1604 30.3456 19.3109 28.781 20.049C27.2164 20.787 25.4694 21.0829 23.7398 20.9027C22.0102 20.7224 20.3677 20.0734 19 19.0299C20.1035 18.1876 20.9955 17.113 21.6089 15.8873C22.2223 14.6616 22.541 13.3167 22.541 11.9541C22.541 10.5914 22.2223 9.24651 21.6089 8.02081C20.9955 6.79511 20.1035 5.7206 19 4.8783C20.3677 3.83471 22.0102 3.18571 23.7398 3.0055C25.4694 2.82528 27.2164 3.12112 28.781 3.85919C30.3456 4.59726 31.6647 5.74778 32.5876 7.17925C33.5105 8.61073 33.9998 10.2653 33.9998 11.9541Z" fill="#FFA501"></path>
      <path id="Vector_5" d="M33.1154 17.5305V17.2408H33.2357V17.1817H32.9292V17.2408H33.0496V17.5305H33.1154ZM33.7104 17.5305V17.1812H33.6165L33.5084 17.4214L33.4003 17.1812H33.3063V17.5305H33.3727V17.267L33.474 17.4942H33.5428L33.6441 17.2664V17.5305H33.7104Z" fill="#F79E1B"></path>
    </g>
  </symbol>
  <symbol fill="none" xmlns="http://www.w3.org/2000/svg" viewBox="0 0 38 24" id="visa">
    <g id="visa">
      <path id="Vector" d="M36 0H2C0.89543 0 0 0.89543 0 2V22C0 23.1046 0.89543 24 2 24H36C37.1046 24 38 23.1046 38 22V2C38 0.89543 37.1046 0 36 0Z" fill="#0E4595"></path>
      <path id="Vector_2" fill-rule="evenodd" clip-rule="evenodd" d="M13.3608 16.8852L15.131 7.19727H17.9624L16.1909 16.8852H13.3608Z" fill="white"></path>
      <path id="Vector_3" fill-rule="evenodd" clip-rule="evenodd" d="M26.4206 7.40689C25.8596 7.21062 24.9807 7 23.883 7C21.0854 7 19.1146 8.31396 19.0979 10.1971C19.0821 11.5892 20.5048 12.3657 21.5787 12.8291C22.6808 13.304 23.0513 13.6069 23.0461 14.0309C23.0391 14.6802 22.166 14.9769 21.3522 14.9769C20.2189 14.9769 19.6169 14.8301 18.6871 14.4684L18.3222 14.3144L17.9248 16.4831C18.5861 16.7535 19.809 16.9879 21.0787 17C24.0549 17 25.987 15.7011 26.009 13.6901C26.0197 12.5881 25.2653 11.7494 23.6319 11.058C22.6422 10.6098 22.0361 10.3108 22.0426 9.85695C22.0426 9.45426 22.5556 9.02367 23.664 9.02367C24.5899 9.01025 25.2605 9.19856 25.7831 9.39483L26.0368 9.50662L26.4206 7.40689Z" fill="white"></path>
      <path id="Vector_4" fill-rule="evenodd" clip-rule="evenodd" d="M33.7084 7.19727H31.5205C30.8428 7.19727 30.3356 7.36978 30.0379 8.00065L25.833 16.879H28.8062C28.8062 16.879 29.2923 15.6852 29.4023 15.4231C29.7272 15.4231 32.6154 15.4273 33.0283 15.4273C33.113 15.7664 33.3728 16.879 33.3728 16.879H36L33.7084 7.19727ZM30.2376 13.4515C30.4718 12.8934 31.3657 10.7434 31.3657 10.7434C31.3489 10.7692 31.5981 10.1825 31.7411 9.81875L31.9325 10.654C31.9325 10.654 32.4746 12.9666 32.5879 13.4515H30.2376Z" fill="white"></path>
      <path id="Vector_5" fill-rule="evenodd" clip-rule="evenodd" d="M10.9583 7.19727L8.18631 13.8037L7.89097 12.4611C7.37494 10.9134 5.76716 9.23667 3.96973 8.3972L6.50435 16.8697L9.49997 16.8665L13.9574 7.19727H10.9583Z" fill="white"></path>
      <path id="Vector_6" fill-rule="evenodd" clip-rule="evenodd" d="M5.60166 7.19727H1.03614L1 7.39883C4.55193 8.20073 6.90221 10.1386 7.87781 12.4671L6.88507 8.01515C6.71368 7.4017 6.21659 7.21864 5.60166 7.19727Z" fill="#F2AE14"></path>
    </g>
  </symbol>
    <symbol fill="none" xmlns="http://www.w3.org/2000/svg" viewBox="0 0 33 32" id="award_star">
    <g id="icon32/award_star">
      <mask id="mask0_16_6901" maskUnits="userSpaceOnUse" x="0" y="0" width="33" height="32">
        <rect id="Bounding box" x="0.5" width="32" height="32" fill="#D9D9D9"></rect>
      </mask>
      <g mask="url(#mask0_16_6901)">
        <path id="award_star" d="M16.5003 31.0664L12.0336 26.6664H5.83359V20.4664L1.43359 15.9998L5.83359 11.5331V5.33311H12.0336L16.5003 0.933105L20.9669 5.33311H27.1669V11.5331L31.5669 15.9998L27.1669 20.4664V26.6664H20.9669L16.5003 31.0664ZM12.6003 21.6664L16.5003 19.2998L20.4003 21.6664L19.3669 17.2331L22.8336 14.2331L18.2669 13.8664L16.5003 9.66644L14.7336 13.8664L10.1669 14.2331L13.6336 17.2331L12.6003 21.6664Z" fill="white"></path>
      </g>
    </g>
  </symbol>
  <symbol fill="none" xmlns="http://www.w3.org/2000/svg" viewBox="0 0 33 32" id="shield_lock">
    <g id="icon32/shield_lock">
      <mask id="mask0_16_2004" maskUnits="userSpaceOnUse" x="0" y="0" width="33" height="32">
        <rect id="Bounding box" x="0.5" width="32" height="32" fill="#D9D9D9"></rect>
      </mask>
      <g mask="url(#mask0_16_2004)">
        <path id="shield_lock" d="M16.4997 29.3332C13.4108 28.5554 10.8608 26.7832 8.84967 24.0165C6.83856 21.2498 5.83301 18.1776 5.83301 14.7998V6.6665L16.4997 2.6665L27.1663 6.6665V14.7998C27.1663 18.1776 26.1608 21.2498 24.1497 24.0165C22.1386 26.7832 19.5886 28.5554 16.4997 29.3332ZM16.4997 26.5332C18.8108 25.7998 20.7219 24.3332 22.233 22.1332C23.7441 19.9332 24.4997 17.4887 24.4997 14.7998V8.49984L16.4997 5.49984L8.49967 8.49984V14.7998C8.49967 17.4887 9.25523 19.9332 10.7663 22.1332C12.2775 24.3332 14.1886 25.7998 16.4997 26.5332ZM13.833 21.3332H19.1663C19.5441 21.3332 19.8608 21.2054 20.1163 20.9498C20.3719 20.6943 20.4997 20.3776 20.4997 19.9998V15.9998C20.4997 15.6221 20.3719 15.3054 20.1163 15.0498C19.8608 14.7943 19.5441 14.6665 19.1663 14.6665V13.3332C19.1663 12.5998 18.9052 11.9721 18.383 11.4498C17.8608 10.9276 17.233 10.6665 16.4997 10.6665C15.7663 10.6665 15.1386 10.9276 14.6163 11.4498C14.0941 11.9721 13.833 12.5998 13.833 13.3332V14.6665C13.4552 14.6665 13.1386 14.7943 12.883 15.0498C12.6275 15.3054 12.4997 15.6221 12.4997 15.9998V19.9998C12.4997 20.3776 12.6275 20.6943 12.883 20.9498C13.1386 21.2054 13.4552 21.3332 13.833 21.3332ZM15.1663 14.6665V13.3332C15.1663 12.9554 15.2941 12.6387 15.5497 12.3832C15.8052 12.1276 16.1219 11.9998 16.4997 11.9998C16.8775 11.9998 17.1941 12.1276 17.4497 12.3832C17.7052 12.6387 17.833 12.9554 17.833 13.3332V14.6665H15.1663Z" fill="white"></path>
      </g>
    </g>
  </symbol>
  <symbol fill="none" xmlns="http://www.w3.org/2000/svg" viewBox="0 0 33 32" id="ua">
    <g id="flag/ua">
      <g id="Ua">
        <path fill-rule="evenodd" clip-rule="evenodd" d="M16.5 32C25.3366 32 32.5 24.7229 32.5 15.746H0.5C0.5 24.7229 7.66344 32 16.5 32Z" fill="#FFD500"></path>
        <path fill-rule="evenodd" clip-rule="evenodd" d="M16.5 0C25.3366 0 32.5 7.27715 32.5 16.254H0.5C0.5 7.27715 7.66344 0 16.5 0Z" fill="#005BBB"></path>
      </g>
    </g>
  </symbol>
   <symbol fill="none" xmlns="http://www.w3.org/2000/svg" viewBox="0 0 32 32" id="headset_mic">
    <g id="icon/headset_mic">
      <mask id="mask0_1607_8881" maskUnits="userSpaceOnUse" x="0" y="0" width="32" height="32">
        <rect id="Bounding box" width="32" height="32" fill="#D9D9D9"></rect>
      </mask>
      <g mask="url(#mask0_1607_8881)">
        <path id="headset_mic" d="M16 30.6667V28.0001H25.3333V26.6667H20V16.0001H25.3333V14.6667C25.3333 12.089 24.4222 9.88897 22.6 8.06675C20.7778 6.24453 18.5778 5.33341 16 5.33341C13.4222 5.33341 11.2222 6.24453 9.4 8.06675C7.57778 9.88897 6.66667 12.089 6.66667 14.6667V16.0001H12V26.6667H6.66667C5.93333 26.6667 5.30556 26.4056 4.78333 25.8834C4.26111 25.3612 4 24.7334 4 24.0001V14.6667C4 13.0223 4.31667 11.4723 4.95 10.0167C5.58333 8.56119 6.44444 7.28897 7.53333 6.20008C8.62222 5.11119 9.89444 4.25008 11.35 3.61675C12.8056 2.98341 14.3556 2.66675 16 2.66675C17.6444 2.66675 19.1944 2.98341 20.65 3.61675C22.1056 4.25008 23.3778 5.11119 24.4667 6.20008C25.5556 7.28897 26.4167 8.56119 27.05 10.0167C27.6833 11.4723 28 13.0223 28 14.6667V28.0001C28 28.7334 27.7389 29.3612 27.2167 29.8834C26.6944 30.4056 26.0667 30.6667 25.3333 30.6667H16ZM6.66667 24.0001H9.33333V18.6667H6.66667V24.0001ZM22.6667 24.0001H25.3333V18.6667H22.6667V24.0001Z" fill="white"></path>
      </g>
    </g>
  </symbol>
  <symbol fill="none" xmlns="http://www.w3.org/2000/svg" viewBox="0 0 32 32" id="logout">
    <g id="icon/logout_28px">
      <mask id="mask0_17_27884" maskUnits="userSpaceOnUse" x="0" y="0" width="32" height="32">
        <rect id="Bounding box" width="32" height="32" fill="#D9D9D9"></rect>
      </mask>
      <g mask="url(#mask0_17_27884)">
        <path id="logout" d="M20.4333 21.7C20.1889 21.4111 20.0667 21.0833 20.0667 20.7167C20.0667 20.35 20.1889 20.0444 20.4333 19.8L22.9 17.3333H13.3333C12.9556 17.3333 12.6389 17.2056 12.3833 16.95C12.1278 16.6944 12 16.3778 12 16C12 15.6222 12.1278 15.3056 12.3833 15.05C12.6389 14.7944 12.9556 14.6667 13.3333 14.6667H22.9L20.4333 12.2C20.1667 11.9333 20.0333 11.6167 20.0333 11.25C20.0333 10.8833 20.1667 10.5667 20.4333 10.3C20.6778 10.0333 20.9833 9.9 21.35 9.9C21.7167 9.9 22.0222 10.0222 22.2667 10.2667L27.0667 15.0667C27.2 15.2 27.2944 15.3444 27.35 15.5C27.4056 15.6556 27.4333 15.8222 27.4333 16C27.4333 16.1778 27.4056 16.3444 27.35 16.5C27.2944 16.6556 27.2 16.8 27.0667 16.9333L22.2667 21.7333C21.9778 22.0222 21.6611 22.15 21.3167 22.1167C20.9722 22.0833 20.6778 21.9444 20.4333 21.7ZM6.66667 28C5.93333 28 5.30556 27.7389 4.78333 27.2167C4.26111 26.6944 4 26.0667 4 25.3333V6.66667C4 5.93333 4.26111 5.30556 4.78333 4.78333C5.30556 4.26111 5.93333 4 6.66667 4H14.6667C15.0444 4 15.3611 4.12778 15.6167 4.38333C15.8722 4.63889 16 4.95556 16 5.33333C16 5.71111 15.8722 6.02778 15.6167 6.28333C15.3611 6.53889 15.0444 6.66667 14.6667 6.66667H6.66667V25.3333H14.6667C15.0444 25.3333 15.3611 25.4611 15.6167 25.7167C15.8722 25.9722 16 26.2889 16 26.6667C16 27.0444 15.8722 27.3611 15.6167 27.6167C15.3611 27.8722 15.0444 28 14.6667 28H6.66667Z" fill="white"></path>
      </g>
    </g>
  </symbol>
  <symbol fill="none" xmlns="http://www.w3.org/2000/svg" viewBox="0 0 32 32" id="settings">
    <g id="icon/settings">
      <mask id="mask0_17_28631" maskUnits="userSpaceOnUse" x="0" y="0" width="32" height="32">
        <rect id="Bounding box" width="32" height="32" fill="#D9D9D9"></rect>
      </mask>
      <g mask="url(#mask0_17_28631)">
        <path id="settings" d="M18.4998 29.3334H13.4998C13.1665 29.3334 12.8776 29.2223 12.6331 29.0001C12.3887 28.7779 12.2442 28.5001 12.1998 28.1667L11.7998 25.0668C11.5109 24.9556 11.2387 24.8223 10.9831 24.6667C10.7276 24.5112 10.4776 24.3445 10.2331 24.1667L7.33313 25.3667C7.02202 25.4779 6.71091 25.489 6.3998 25.4001C6.08869 25.3112 5.84424 25.1223 5.66647 24.8334L3.1998 20.5334C3.02202 20.2445 2.96647 19.9334 3.03313 19.6001C3.0998 19.2667 3.26647 19.0001 3.53313 18.8001L6.03313 16.9001C6.01091 16.7445 5.9998 16.5945 5.9998 16.4501V15.5501C5.9998 15.4056 6.01091 15.2556 6.03313 15.1001L3.53313 13.2001C3.26647 13.0001 3.0998 12.7334 3.03313 12.4001C2.96647 12.0667 3.02202 11.7556 3.1998 11.4667L5.66647 7.16675C5.82202 6.85564 6.06091 6.66119 6.38313 6.58341C6.70535 6.50564 7.02202 6.5223 7.33313 6.63342L10.2331 7.83341C10.4776 7.65564 10.7331 7.48897 10.9998 7.33341C11.2665 7.17786 11.5331 7.04453 11.7998 6.93341L12.1998 3.83341C12.2442 3.50008 12.3887 3.2223 12.6331 3.00008C12.8776 2.77786 13.1665 2.66675 13.4998 2.66675H18.4998C18.8331 2.66675 19.122 2.77786 19.3665 3.00008C19.6109 3.2223 19.7554 3.50008 19.7998 3.83341L20.1998 6.93341C20.4887 7.04453 20.7609 7.17786 21.0165 7.33341C21.272 7.48897 21.522 7.65564 21.7665 7.83341L24.6665 6.63342C24.9776 6.5223 25.2887 6.51119 25.5998 6.60008C25.9109 6.68897 26.1554 6.87786 26.3331 7.16675L28.7998 11.4667C28.9776 11.7556 29.0331 12.0667 28.9665 12.4001C28.8998 12.7334 28.7331 13.0001 28.4665 13.2001L25.9665 15.1001C25.9887 15.2556 25.9998 15.4056 25.9998 15.5501V16.4501C25.9998 16.5945 25.9776 16.7445 25.9331 16.9001L28.4331 18.8001C28.6998 19.0001 28.8665 19.2667 28.9331 19.6001C28.9998 19.9334 28.9442 20.2445 28.7665 20.5334L26.2998 24.8001C26.122 25.089 25.872 25.2834 25.5498 25.3834C25.2276 25.4834 24.9109 25.4779 24.5998 25.3667L21.7665 24.1667C21.522 24.3445 21.2665 24.5112 20.9998 24.6667C20.7331 24.8223 20.4665 24.9556 20.1998 25.0668L19.7998 28.1667C19.7554 28.5001 19.6109 28.7779 19.3665 29.0001C19.122 29.2223 18.8331 29.3334 18.4998 29.3334ZM16.0665 20.6667C17.3554 20.6667 18.4554 20.2112 19.3665 19.3001C20.2776 18.389 20.7331 17.289 20.7331 16.0001C20.7331 14.7112 20.2776 13.6112 19.3665 12.7001C18.4554 11.789 17.3554 11.3334 16.0665 11.3334C14.7554 11.3334 13.6498 11.789 12.7498 12.7001C11.8498 13.6112 11.3998 14.7112 11.3998 16.0001C11.3998 17.289 11.8498 18.389 12.7498 19.3001C13.6498 20.2112 14.7554 20.6667 16.0665 20.6667ZM16.0665 18.0001C15.5109 18.0001 15.0387 17.8056 14.6498 17.4167C14.2609 17.0279 14.0665 16.5556 14.0665 16.0001C14.0665 15.4445 14.2609 14.9723 14.6498 14.5834C15.0387 14.1945 15.5109 14.0001 16.0665 14.0001C16.622 14.0001 17.0942 14.1945 17.4831 14.5834C17.872 14.9723 18.0665 15.4445 18.0665 16.0001C18.0665 16.5556 17.872 17.0279 17.4831 17.4167C17.0942 17.8056 16.622 18.0001 16.0665 18.0001ZM14.6665 26.6667H17.2998L17.7665 23.1334C18.4554 22.9556 19.0942 22.6945 19.6831 22.3501C20.272 22.0056 20.8109 21.589 21.2998 21.1001L24.5998 22.4667L25.8998 20.2001L23.0331 18.0334C23.1442 17.7223 23.222 17.3945 23.2665 17.0501C23.3109 16.7056 23.3331 16.3556 23.3331 16.0001C23.3331 15.6445 23.3109 15.2945 23.2665 14.9501C23.222 14.6056 23.1442 14.2779 23.0331 13.9667L25.8998 11.8001L24.5998 9.53342L21.2998 10.9334C20.8109 10.4223 20.272 9.99453 19.6831 9.65008C19.0942 9.30564 18.4554 9.04453 17.7665 8.86675L17.3331 5.33341H14.6998L14.2331 8.86675C13.5442 9.04453 12.9054 9.30564 12.3165 9.65008C11.7276 9.99453 11.1887 10.4112 10.6998 10.9001L7.3998 9.53342L6.0998 11.8001L8.96647 13.9334C8.85535 14.2667 8.77758 14.6001 8.73313 14.9334C8.68869 15.2667 8.66647 15.6223 8.66647 16.0001C8.66647 16.3556 8.68869 16.7001 8.73313 17.0334C8.77758 17.3667 8.85535 17.7001 8.96647 18.0334L6.0998 20.2001L7.3998 22.4667L10.6998 21.0667C11.1887 21.5779 11.7276 22.0056 12.3165 22.3501C12.9054 22.6945 13.5442 22.9556 14.2331 23.1334L14.6665 26.6667Z" fill="white"></path>
      </g>
    </g>
  </symbol>
  <symbol fill="none" xmlns="http://www.w3.org/2000/svg" viewBox="0 0 33 32" id="faq">
    <g id="icon/faq">
      <mask id="mask0_1607_8909" maskUnits="userSpaceOnUse" x="0" y="0" width="33" height="32">
        <rect id="Bounding box" x="0.5" width="32" height="32" fill="#D9D9D9"></rect>
      </mask>
      <g mask="url(#mask0_1607_8909)">
        <path id="import_contacts" d="M9.16634 21.3333C10.2108 21.3333 11.2275 21.4499 12.2163 21.6833C13.2052 21.9166 14.1886 22.2666 15.1663 22.7333V9.59992C14.2552 9.06659 13.2886 8.66658 12.2663 8.39992C11.2441 8.13325 10.2108 7.99992 9.16634 7.99992C8.36634 7.99992 7.5719 8.0777 6.78301 8.23325C5.99412 8.38881 5.23301 8.62214 4.49967 8.93325V22.1333C5.27745 21.8666 6.04967 21.6666 6.81634 21.5333C7.58301 21.3999 8.36634 21.3333 9.16634 21.3333ZM17.833 22.7333C18.8108 22.2666 19.7941 21.9166 20.783 21.6833C21.7719 21.4499 22.7886 21.3333 23.833 21.3333C24.633 21.3333 25.4163 21.3999 26.183 21.5333C26.9497 21.6666 27.7219 21.8666 28.4997 22.1333V8.93325C27.7663 8.62214 27.0052 8.38881 26.2163 8.23325C25.4275 8.0777 24.633 7.99992 23.833 7.99992C22.7886 7.99992 21.7552 8.13325 20.733 8.39992C19.7108 8.66658 18.7441 9.06659 17.833 9.59992V22.7333ZM16.4997 26.6666C15.433 25.8221 14.2775 25.1666 13.033 24.6999C11.7886 24.2333 10.4997 23.9999 9.16634 23.9999C8.23301 23.9999 7.31634 24.1221 6.41634 24.3666C5.51634 24.611 4.65523 24.9555 3.83301 25.3999C3.36634 25.6444 2.91634 25.6333 2.48301 25.3666C2.04967 25.0999 1.83301 24.711 1.83301 24.1999V8.13325C1.83301 7.88881 1.89412 7.65547 2.01634 7.43325C2.13856 7.21103 2.3219 7.04436 2.56634 6.93325C3.58856 6.39992 4.65523 5.99992 5.76634 5.73325C6.87745 5.46659 8.01079 5.33325 9.16634 5.33325C10.4552 5.33325 11.7163 5.49992 12.9497 5.83325C14.183 6.16659 15.3663 6.66659 16.4997 7.33325C17.633 6.66659 18.8163 6.16659 20.0497 5.83325C21.283 5.49992 22.5441 5.33325 23.833 5.33325C24.9886 5.33325 26.1219 5.46659 27.233 5.73325C28.3441 5.99992 29.4108 6.39992 30.433 6.93325C30.6775 7.04436 30.8608 7.21103 30.983 7.43325C31.1052 7.65547 31.1663 7.88881 31.1663 8.13325V24.1999C31.1663 24.711 30.9497 25.0999 30.5163 25.3666C30.083 25.6333 29.633 25.6444 29.1663 25.3999C28.3441 24.9555 27.483 24.611 26.583 24.3666C25.683 24.1221 24.7663 23.9999 23.833 23.9999C22.4997 23.9999 21.2108 24.2333 19.9663 24.6999C18.7219 25.1666 17.5663 25.8221 16.4997 26.6666Z" fill="white"></path>
      </g>
    </g>
  </symbol>
  <symbol fill="none" xmlns="http://www.w3.org/2000/svg" viewBox="0 0 33 32" id="newsmode">
    <g id="icon/newsmode">
      <mask id="mask0_1607_8906" maskUnits="userSpaceOnUse" x="0" y="0" width="33" height="32">
        <rect id="Bounding box" x="0.5" width="32" height="32" fill="#D9D9D9"></rect>
      </mask>
      <g mask="url(#mask0_1607_8906)">
        <path id="newsmode" d="M5.83366 28C5.10033 28 4.47255 27.7389 3.95033 27.2167C3.4281 26.6944 3.16699 26.0667 3.16699 25.3333V6.66667C3.16699 5.93333 3.4281 5.30556 3.95033 4.78333C4.47255 4.26111 5.10033 4 5.83366 4H27.167C27.9003 4 28.5281 4.26111 29.0503 4.78333C29.5725 5.30556 29.8337 5.93333 29.8337 6.66667V25.3333C29.8337 26.0667 29.5725 26.6944 29.0503 27.2167C28.5281 27.7389 27.9003 28 27.167 28H5.83366ZM5.83366 25.3333H27.167V6.66667H5.83366V25.3333ZM8.50033 22.6667H24.5003V20H8.50033V22.6667ZM8.50033 17.3333H13.8337V9.33333H8.50033V17.3333ZM16.5003 17.3333H24.5003V14.6667H16.5003V17.3333ZM16.5003 12H24.5003V9.33333H16.5003V12Z" fill="white"></path>
      </g>
    </g>
  </symbol>
  <symbol fill="none" xmlns="http://www.w3.org/2000/svg" viewBox="0 0 32 32" id="settings">
    <g id="icon/settings">
      <mask id="mask0_17_28631" maskUnits="userSpaceOnUse" x="0" y="0" width="32" height="32">
        <rect id="Bounding box" width="32" height="32" fill="#D9D9D9"></rect>
      </mask>
      <g mask="url(#mask0_17_28631)">
        <path id="settings" d="M18.4998 29.3334H13.4998C13.1665 29.3334 12.8776 29.2223 12.6331 29.0001C12.3887 28.7779 12.2442 28.5001 12.1998 28.1667L11.7998 25.0668C11.5109 24.9556 11.2387 24.8223 10.9831 24.6667C10.7276 24.5112 10.4776 24.3445 10.2331 24.1667L7.33313 25.3667C7.02202 25.4779 6.71091 25.489 6.3998 25.4001C6.08869 25.3112 5.84424 25.1223 5.66647 24.8334L3.1998 20.5334C3.02202 20.2445 2.96647 19.9334 3.03313 19.6001C3.0998 19.2667 3.26647 19.0001 3.53313 18.8001L6.03313 16.9001C6.01091 16.7445 5.9998 16.5945 5.9998 16.4501V15.5501C5.9998 15.4056 6.01091 15.2556 6.03313 15.1001L3.53313 13.2001C3.26647 13.0001 3.0998 12.7334 3.03313 12.4001C2.96647 12.0667 3.02202 11.7556 3.1998 11.4667L5.66647 7.16675C5.82202 6.85564 6.06091 6.66119 6.38313 6.58341C6.70535 6.50564 7.02202 6.5223 7.33313 6.63342L10.2331 7.83341C10.4776 7.65564 10.7331 7.48897 10.9998 7.33341C11.2665 7.17786 11.5331 7.04453 11.7998 6.93341L12.1998 3.83341C12.2442 3.50008 12.3887 3.2223 12.6331 3.00008C12.8776 2.77786 13.1665 2.66675 13.4998 2.66675H18.4998C18.8331 2.66675 19.122 2.77786 19.3665 3.00008C19.6109 3.2223 19.7554 3.50008 19.7998 3.83341L20.1998 6.93341C20.4887 7.04453 20.7609 7.17786 21.0165 7.33341C21.272 7.48897 21.522 7.65564 21.7665 7.83341L24.6665 6.63342C24.9776 6.5223 25.2887 6.51119 25.5998 6.60008C25.9109 6.68897 26.1554 6.87786 26.3331 7.16675L28.7998 11.4667C28.9776 11.7556 29.0331 12.0667 28.9665 12.4001C28.8998 12.7334 28.7331 13.0001 28.4665 13.2001L25.9665 15.1001C25.9887 15.2556 25.9998 15.4056 25.9998 15.5501V16.4501C25.9998 16.5945 25.9776 16.7445 25.9331 16.9001L28.4331 18.8001C28.6998 19.0001 28.8665 19.2667 28.9331 19.6001C28.9998 19.9334 28.9442 20.2445 28.7665 20.5334L26.2998 24.8001C26.122 25.089 25.872 25.2834 25.5498 25.3834C25.2276 25.4834 24.9109 25.4779 24.5998 25.3667L21.7665 24.1667C21.522 24.3445 21.2665 24.5112 20.9998 24.6667C20.7331 24.8223 20.4665 24.9556 20.1998 25.0668L19.7998 28.1667C19.7554 28.5001 19.6109 28.7779 19.3665 29.0001C19.122 29.2223 18.8331 29.3334 18.4998 29.3334ZM16.0665 20.6667C17.3554 20.6667 18.4554 20.2112 19.3665 19.3001C20.2776 18.389 20.7331 17.289 20.7331 16.0001C20.7331 14.7112 20.2776 13.6112 19.3665 12.7001C18.4554 11.789 17.3554 11.3334 16.0665 11.3334C14.7554 11.3334 13.6498 11.789 12.7498 12.7001C11.8498 13.6112 11.3998 14.7112 11.3998 16.0001C11.3998 17.289 11.8498 18.389 12.7498 19.3001C13.6498 20.2112 14.7554 20.6667 16.0665 20.6667ZM16.0665 18.0001C15.5109 18.0001 15.0387 17.8056 14.6498 17.4167C14.2609 17.0279 14.0665 16.5556 14.0665 16.0001C14.0665 15.4445 14.2609 14.9723 14.6498 14.5834C15.0387 14.1945 15.5109 14.0001 16.0665 14.0001C16.622 14.0001 17.0942 14.1945 17.4831 14.5834C17.872 14.9723 18.0665 15.4445 18.0665 16.0001C18.0665 16.5556 17.872 17.0279 17.4831 17.4167C17.0942 17.8056 16.622 18.0001 16.0665 18.0001ZM14.6665 26.6667H17.2998L17.7665 23.1334C18.4554 22.9556 19.0942 22.6945 19.6831 22.3501C20.272 22.0056 20.8109 21.589 21.2998 21.1001L24.5998 22.4667L25.8998 20.2001L23.0331 18.0334C23.1442 17.7223 23.222 17.3945 23.2665 17.0501C23.3109 16.7056 23.3331 16.3556 23.3331 16.0001C23.3331 15.6445 23.3109 15.2945 23.2665 14.9501C23.222 14.6056 23.1442 14.2779 23.0331 13.9667L25.8998 11.8001L24.5998 9.53342L21.2998 10.9334C20.8109 10.4223 20.272 9.99453 19.6831 9.65008C19.0942 9.30564 18.4554 9.04453 17.7665 8.86675L17.3331 5.33341H14.6998L14.2331 8.86675C13.5442 9.04453 12.9054 9.30564 12.3165 9.65008C11.7276 9.99453 11.1887 10.4112 10.6998 10.9001L7.3998 9.53342L6.0998 11.8001L8.96647 13.9334C8.85535 14.2667 8.77758 14.6001 8.73313 14.9334C8.68869 15.2667 8.66647 15.6223 8.66647 16.0001C8.66647 16.3556 8.68869 16.7001 8.73313 17.0334C8.77758 17.3667 8.85535 17.7001 8.96647 18.0334L6.0998 20.2001L7.3998 22.4667L10.6998 21.0667C11.1887 21.5779 11.7276 22.0056 12.3165 22.3501C12.9054 22.6945 13.5442 22.9556 14.2331 23.1334L14.6665 26.6667Z" fill="white"></path>
      </g>
    </g>
  </symbol>
  <symbol fill="none" xmlns="http://www.w3.org/2000/svg" viewBox="0 0 33 32" id="supervised">
    <g id="icon/supervised_user_circle">
      <mask id="mask0_1607_8900" maskUnits="userSpaceOnUse" x="0" y="0" width="33" height="32">
        <rect id="Bounding box" x="0.5" width="32" height="32" fill="#D9D9D9"></rect>
      </mask>
      <g mask="url(#mask0_1607_8900)">
        <path id="supervised_user_circle" d="M16.5003 29.3334C14.6559 29.3334 12.9225 28.9834 11.3003 28.2834C9.6781 27.5834 8.26699 26.6334 7.06699 25.4334C5.86699 24.2334 4.91699 22.8223 4.21699 21.2001C3.51699 19.5779 3.16699 17.8445 3.16699 16.0001C3.16699 14.1556 3.51699 12.4223 4.21699 10.8001C4.91699 9.17786 5.86699 7.76675 7.06699 6.56675C8.26699 5.36675 9.6781 4.41675 11.3003 3.71675C12.9225 3.01675 14.6559 2.66675 16.5003 2.66675C18.3448 2.66675 20.0781 3.01675 21.7003 3.71675C23.3225 4.41675 24.7337 5.36675 25.9337 6.56675C27.1337 7.76675 28.0837 9.17786 28.7837 10.8001C29.4837 12.4223 29.8337 14.1556 29.8337 16.0001C29.8337 17.8445 29.4837 19.5779 28.7837 21.2001C28.0837 22.8223 27.1337 24.2334 25.9337 25.4334C24.7337 26.6334 23.3225 27.5834 21.7003 28.2834C20.0781 28.9834 18.3448 29.3334 16.5003 29.3334ZM13.167 18.0001C14.4559 18.0001 15.5559 17.5445 16.467 16.6334C17.3781 15.7223 17.8337 14.6223 17.8337 13.3334C17.8337 12.0445 17.3781 10.9445 16.467 10.0334C15.5559 9.1223 14.4559 8.66675 13.167 8.66675C11.8781 8.66675 10.7781 9.1223 9.86699 10.0334C8.95588 10.9445 8.50033 12.0445 8.50033 13.3334C8.50033 14.6223 8.95588 15.7223 9.86699 16.6334C10.7781 17.5445 11.8781 18.0001 13.167 18.0001ZM22.5003 19.3334C23.4337 19.3334 24.2225 19.0112 24.867 18.3667C25.5114 17.7223 25.8337 16.9334 25.8337 16.0001C25.8337 15.0667 25.5114 14.2779 24.867 13.6334C24.2225 12.989 23.4337 12.6667 22.5003 12.6667C21.567 12.6667 20.7781 12.989 20.1337 13.6334C19.4892 14.2779 19.167 15.0667 19.167 16.0001C19.167 16.9334 19.4892 17.7223 20.1337 18.3667C20.7781 19.0112 21.567 19.3334 22.5003 19.3334ZM16.5003 26.6667C18.3892 26.6667 20.1114 26.2223 21.667 25.3334C23.2225 24.4445 24.4781 23.2667 25.4337 21.8001C24.967 21.6667 24.4892 21.5556 24.0003 21.4667C23.5114 21.3779 23.0114 21.3334 22.5003 21.3334C21.3225 21.3334 19.9003 21.6779 18.2337 22.3667C16.567 23.0556 15.2337 24.4112 14.2337 26.4334C14.6114 26.5223 14.9892 26.5834 15.367 26.6167C15.7448 26.6501 16.1225 26.6667 16.5003 26.6667ZM12.267 25.8001C13.0448 24.2001 13.9281 23.0112 14.917 22.2334C15.9059 21.4556 16.6559 20.9334 17.167 20.6667C16.5225 20.4667 15.8725 20.3056 15.217 20.1834C14.5614 20.0612 13.8781 20.0001 13.167 20.0001C12.167 20.0001 11.1781 20.1223 10.2003 20.3667C9.22255 20.6112 8.2781 20.9556 7.36699 21.4001C7.94477 22.3556 8.65033 23.2167 9.48366 23.9834C10.317 24.7501 11.2448 25.3556 12.267 25.8001Z" fill="white"></path>
      </g>
    </g>
  </symbol>
  <symbol fill="none" xmlns="http://www.w3.org/2000/svg" viewBox="0 0 32 32" id="work">
    <g id="icon/work">
      <mask id="mask0_1607_8903" maskUnits="userSpaceOnUse" x="0" y="0" width="32" height="32">
        <rect id="Bounding box" width="32" height="32" fill="#D9D9D9"></rect>
      </mask>
      <g mask="url(#mask0_1607_8903)">
        <path id="work" d="M5.33366 28.0001C4.60033 28.0001 3.97255 27.739 3.45033 27.2167C2.9281 26.6945 2.66699 26.0667 2.66699 25.3334V10.6667C2.66699 9.93341 2.9281 9.30564 3.45033 8.78341C3.97255 8.26119 4.60033 8.00008 5.33366 8.00008H10.667V5.33341C10.667 4.60008 10.9281 3.9723 11.4503 3.45008C11.9725 2.92786 12.6003 2.66675 13.3337 2.66675H18.667C19.4003 2.66675 20.0281 2.92786 20.5503 3.45008C21.0725 3.9723 21.3337 4.60008 21.3337 5.33341V8.00008H26.667C27.4003 8.00008 28.0281 8.26119 28.5503 8.78341C29.0725 9.30564 29.3337 9.93341 29.3337 10.6667V25.3334C29.3337 26.0667 29.0725 26.6945 28.5503 27.2167C28.0281 27.739 27.4003 28.0001 26.667 28.0001H5.33366ZM13.3337 8.00008H18.667V5.33341H13.3337V8.00008Z" fill="white"></path>
      </g>
    </g>
  </symbol>
    <symbol fill="none" xmlns="http://www.w3.org/2000/svg" viewBox="0 0 32 32" id="account_circle">
    <path d="M7.39 23.14C8.58 22.23 9.91 21.5125 11.38 20.9875C12.85 20.4625 14.39 20.2 16 20.2C17.61 20.2 19.15 20.4625 20.62 20.9875C22.09 21.5125 23.42 22.23 24.61 23.14C25.4267 22.1833 26.0625 21.0983 26.5175 19.885C26.9725 18.6717 27.2 17.3767 27.2 16C27.2 12.8967 26.1092 10.2542 23.9275 8.0725C21.7458 5.89083 19.1033 4.8 16 4.8C12.8967 4.8 10.2542 5.89083 8.0725 8.0725C5.89083 10.2542 4.8 12.8967 4.8 16C4.8 17.3767 5.0275 18.6717 5.4825 19.885C5.9375 21.0983 6.57333 22.1833 7.39 23.14ZM16 17.4C14.6233 17.4 13.4625 16.9275 12.5175 15.9825C11.5725 15.0375 11.1 13.8767 11.1 12.5C11.1 11.1233 11.5725 9.9625 12.5175 9.0175C13.4625 8.0725 14.6233 7.6 16 7.6C17.3767 7.6 18.5375 8.0725 19.4825 9.0175C20.4275 9.9625 20.9 11.1233 20.9 12.5C20.9 13.8767 20.4275 15.0375 19.4825 15.9825C18.5375 16.9275 17.3767 17.4 16 17.4ZM16 30C14.0633 30 12.2433 29.6325 10.54 28.8975C8.83667 28.1625 7.355 27.165 6.095 25.905C4.835 24.645 3.8375 23.1633 3.1025 21.46C2.3675 19.7567 2 17.9367 2 16C2 14.0633 2.3675 12.2433 3.1025 10.54C3.8375 8.83667 4.835 7.355 6.095 6.095C7.355 4.835 8.83667 3.8375 10.54 3.1025C12.2433 2.3675 14.0633 2 16 2C17.9367 2 19.7567 2.3675 21.46 3.1025C23.1633 3.8375 24.645 4.835 25.905 6.095C27.165 7.355 28.1625 8.83667 28.8975 10.54C29.6325 12.2433 30 14.0633 30 16C30 17.9367 29.6325 19.7567 28.8975 21.46C28.1625 23.1633 27.165 24.645 25.905 25.905C24.645 27.165 23.1633 28.1625 21.46 28.8975C19.7567 29.6325 17.9367 30 16 30Z" fill="white"></path>
  </symbol>
</svg>